<?xml version="1.0" encoding="utf-8"?>
<!-- Generator: Adobe Illustrator 17.1.0, SVG Export Plug-In . SVG Version: 6.00 Build 0)  -->
<!DOCTYPE svg PUBLIC "-//W3C//DTD SVG 1.1//EN" "http://www.w3.org/Graphics/SVG/1.1/DTD/svg11.dtd">
<svg version="1.1" id="Capa_1" xmlns="http://www.w3.org/2000/svg" xmlns:xlink="http://www.w3.org/1999/xlink" x="0px" y="0px"
	 viewBox="220.9 -2.4 600 600" enable-background="new 220.9 -2.4 600 600" xml:space="preserve">
<g>
	<g>
		<path fill="#FFFFFF" d="M728.2,416.4L655.8,344c-15-15-39.3-15-54.3,0l-18.1,18.2c-15,15-39.3,15-54.4-0.1l-75.8-74.8
			c-15-15-15-39.3,0-54.3l18.1-18.1c15-15,15-39.3,0-54.3l-72.4-72.4c-15-15-39.3-15-54.3,0l-18.1,18.1
			c-23.5,23.5-30.4,75.3-18.1,135.1c7.8,38.2,30.6,111.6,93.9,174.9c63.2,63.2,136.1,84.9,173.9,92.2c41.6,8,104.1,9.9,133.7-19.8
			l18.1-18.1C743.2,455.7,743.2,431.4,728.2,416.4z M362.8,106.2c5-5,13.1-5,18.1,0l72.4,72.4c5,5,5,13.1,0,18.1l-9,9l-90.5-90.5
			L362.8,106.2z M581.2,483.4c-34.9-6.7-102.3-26.8-160.6-85.1c-58.6-58.6-79.6-126.7-86.9-162c-9.7-46.8-5.7-82,3.8-101.2
			l89.7,89.7c-16.5,24.8-13.8,58.7,8.1,80.7l75.8,74.8c21.8,21.8,55.8,24.6,80.6,8.1l89.8,89.8C654.1,491.9,611.5,489.3,581.2,483.4
			z M710.1,452.6l-9,9L610.6,371l9-9c5-5,13.1-5,18.1,0l72.4,72.4C715.1,439.4,715.1,447.5,710.1,452.6z"/>
	</g>
</g>
<g>
	<g>
		<path fill="#FFFFFF" d="M547.4,77c-7,0-12.8,5.8-12.8,12.8s5.8,12.8,12.8,12.8c91.8,0,166.4,74.6,166.4,166.4
			c0,7,5.8,12.8,12.8,12.8s12.8-5.8,12.8-12.8C739.4,163,653.3,77,547.4,77z"/>
	</g>
</g>
<g>
	<g>
		<path fill="#FFFFFF" d="M547.4,128.1c-7,0-12.8,5.8-12.8,12.8c0,7,5.8,12.8,12.8,12.8c63.5,0,115.2,51.7,115.2,115.2
			c0,7,5.8,12.8,12.8,12.8c7,0,12.8-5.8,12.8-12.8C688.2,191.3,625.1,128.1,547.4,128.1z"/>
	</g>
</g>
<g>
	<g>
		<path fill="#FFFFFF" d="M547.4,179.3c-7,0-12.8,5.8-12.8,12.8c0,7,5.8,12.8,12.8,12.8c35.3,0,64,28.7,64,64
			c0,7,5.8,12.8,12.8,12.8s12.8-5.8,12.8-12.8C637,219.4,596.8,179.3,547.4,179.3z"/>
	</g>
</g>
<g>
	<g>
		<path fill="#FFFFFF" d="M547.4,230.5c-7,0-12.8,5.8-12.8,12.8c0,7,5.8,12.8,12.8,12.8c7,0,12.8,5.8,12.8,12.8s5.8,12.8,12.8,12.8
			c7,0,12.8-5.8,12.8-12.8C585.8,247.7,568.7,230.5,547.4,230.5z"/>
	</g>
</g>
<circle fill="none" stroke="#FFFFFF" stroke-width="16" stroke-miterlimit="10" cx="521" cy="295.2" r="288.1"/>
</svg>
