<?xml version="1.0" encoding="utf-8"?>
<!-- Generator: Adobe Illustrator 17.1.0, SVG Export Plug-In . SVG Version: 6.00 Build 0)  -->
<!DOCTYPE svg PUBLIC "-//W3C//DTD SVG 1.1//EN" "http://www.w3.org/Graphics/SVG/1.1/DTD/svg11.dtd">
<svg version="1.1" id="Layer_1" xmlns="http://www.w3.org/2000/svg" xmlns:xlink="http://www.w3.org/1999/xlink" x="0px" y="0px"
	 viewBox="-394 56 1300 400" enable-background="new -394 56 1300 400" xml:space="preserve">
<path fill="#F2F2F2" d="M-142.2,170.8v208.3h-213V108.7h150.9L-142.2,170.8z"/>
<path fill="#CCCCCC" d="M-142.2,170.8h-62.1v-62.1"/>
<path fill="#79BBE8" d="M-178.1,201.9h-55.2c-2.3,0-4.1-1.9-4.1-4.1c0-2.3,1.9-4.1,4.1-4.1h55.2c2.3,0,4.1,1.9,4.1,4.1
	C-173.9,200-175.8,201.9-178.1,201.9z"/>
<path fill="#79BBE8" d="M-178.1,223.9h-55.2c-2.3,0-4.1-1.9-4.1-4.1c0-2.3,1.9-4.1,4.1-4.1h55.2c2.3,0,4.1,1.9,4.1,4.1
	C-173.9,222.1-175.8,223.9-178.1,223.9z"/>
<path fill="#FFC627" d="M-298.9,255.7c0,7-5.7,12.7-12.7,12.7c-7,0-12.7-5.7-12.7-12.7c0-7,5.7-12.7,12.7-12.7
	C-304.6,243-298.9,248.6-298.9,255.7z"/>
<path fill="#FFC627" d="M-298.9,345.1c0,7-5.7,12.7-12.7,12.7c-7,0-12.7-5.7-12.7-12.7c0-7,5.7-12.7,12.7-12.7
	C-304.6,332.4-298.9,338-298.9,345.1z"/>
<path fill="#FFC627" d="M-298.9,300.4c0,7-5.7,12.7-12.7,12.7c-7,0-12.7-5.7-12.7-12.7c0-7,5.7-12.7,12.7-12.7
	C-304.6,287.7-298.9,293.3-298.9,300.4z"/>
<g>
	<path fill="#79BBE8" d="M-178.1,259.8h-99.3c-2.3,0-4.1-1.9-4.1-4.1s1.9-4.1,4.1-4.1h99.3c2.3,0,4.1,1.9,4.1,4.1
		S-175.8,259.8-178.1,259.8z"/>
	<path fill="#79BBE8" d="M-178.1,304.5h-99.3c-2.3,0-4.1-1.9-4.1-4.1c0-2.3,1.9-4.1,4.1-4.1h99.3c2.3,0,4.1,1.9,4.1,4.1
		C-173.9,302.6-175.8,304.5-178.1,304.5z"/>
	<path fill="#79BBE8" d="M-178.1,349.2h-99.3c-2.3,0-4.1-1.9-4.1-4.1s1.9-4.1,4.1-4.1h99.3c2.3,0,4.1,1.9,4.1,4.1
		S-175.8,349.2-178.1,349.2z"/>
</g>
<path fill="#EA9E8F" d="M-321.6,193.4c-5.4,0-9.8-3.9-9.8-8.8c0-4.8,4.4-8.8,9.8-8.8h65.1c5.4,0,9.8,3.9,9.8,8.8
	c0,4.8-4.4,8.8-9.8,8.8"/>
<path fill="#F9C2AF" d="M-256.4,156.7v32.6c0,18-14.6,32.6-32.6,32.6c-9,0-17.1-3.6-23-9.5c-5.9-5.9-9.5-14-9.5-23v-32.6H-256.4z"/>
<path fill="#EA9E8F" d="M-289.2,221.9c-8.9-0.1-17-3.7-22.8-9.5c-5.9-5.9-9.5-14-9.5-23v-32.6h14.7v32.6c0,9,2,17.1,5.2,23
	C-298.5,218.1-294.1,221.8-289.2,221.9z"/>
<path fill="#293544" d="M-277.4,189c-1.2,0-2.2-1-2.2-2.2v-4.5c0-1.2,1-2.2,2.2-2.2c1.2,0,2.2,1,2.2,2.2v4.5
	C-275.2,188-276.2,189-277.4,189z"/>
<path fill="#293544" d="M-300.6,189c-1.2,0-2.2-1-2.2-2.2v-4.5c0-1.2,1-2.2,2.2-2.2c1.2,0,2.2,1,2.2,2.2v4.5
	C-298.4,188-299.4,189-300.6,189z"/>
<path fill="#EA9E8F" d="M-256.4,156.7v8.2c-2.2,1.6-4.9,3-8.1,4.1c-11.8,4.2-23.2,2.8-31.3,0.6c0,0,0,0,0,0c-7-2-11.5-4.5-11.5-4.5
	s-3,14.3-14.2,14.3v-22.6H-256.4z"/>
<path fill="#515F75" d="M-264.5,165.6c-11.8,4.3-23.2,2.8-31.3,0.6c0,0,0,0,0,0c-7-2-11.5-4.5-11.5-4.5s-3,14.3-14.2,14.3
	c0,0-7.5-13.2-7.3-25.5c0.1-6.4,5.4-11.1,11.3-11.1c1.1,0,2.2,0.2,3.4,0.5c3.2-8.6,11.6-14,20.7-13.4c1.4,0.1,2.8,0.2,4.3,0.3
	c0.3,0,0.6,0,0.8,0.1c0,0,0.1,0,0.1,0c14.9,1.4,30,4.1,38.8-5.7C-249.4,121.1-234.7,154.9-264.5,165.6z"/>
<path fill="#3B485B" d="M-293.4,126.4c1.4,0.1,2.9,0.2,4.3,0.3c-13.1-0.6-23.6,28.4-6.7,39.4c-7-2-11.5-4.5-11.5-4.5
	s-3,14.3-14.2,14.3c0,0-7.5-13.2-7.2-25.5c0.1-6.4,5.4-11.1,11.3-11.1c1.1,0,2.2,0.2,3.4,0.5C-310.9,131.3-302.5,125.8-293.4,126.4z
	"/>
<path fill="#F4AF9D" d="M-288.2,126.8C-288.2,126.8-288.2,126.8-288.2,126.8C-288.2,126.8-288.2,126.8-288.2,126.8L-288.2,126.8z"/>
<path fill="#E06E86" d="M-289,206.3c-3.4,0-6.9-1.3-9.5-3.9c-0.8-0.8-0.8-2.2,0-3.1c0.8-0.8,2.2-0.8,3.1,0c3.6,3.6,9.4,3.6,12.9,0
	c0.8-0.8,2.2-0.8,3.1,0c0.8,0.8,0.8,2.2,0,3.1C-282.1,204.9-285.5,206.3-289,206.3z"/>
<text transform="matrix(1 0 0 1 -130.2007 318.8964)" fill="#FFFFFF" font-family="'ShowcardGothic-Reg'" font-size="140">My Portfolio</text>
</svg>
