<?xml version="1.0" encoding="utf-8"?>
<!-- Generator: Adobe Illustrator 17.1.0, SVG Export Plug-In . SVG Version: 6.00 Build 0)  -->
<!DOCTYPE svg PUBLIC "-//W3C//DTD SVG 1.1//EN" "http://www.w3.org/Graphics/SVG/1.1/DTD/svg11.dtd">
<svg version="1.1" id="Layer_1" xmlns="http://www.w3.org/2000/svg" xmlns:xlink="http://www.w3.org/1999/xlink" x="0px" y="0px"
	 viewBox="0 0 512 512" enable-background="new 0 0 512 512" xml:space="preserve">
<path fill="#FFFFFF" d="M386,53c0,5.5-4.5,10-10,10s-10-4.5-10-10s4.5-10,10-10S386,47.5,386,53z"/>
<path fill="#FFFFFF" d="M376,106H136c-27.6,0-50,22.4-50,50v240c0,27.6,22.4,50,50,50h240c27.6,0,50-22.4,50-50V156
	C426,128.4,403.6,106,376,106z M406,396c0,16.5-13.5,30-30,30H136c-16.5,0-30-13.5-30-30V156c0-16.5,13.5-30,30-30h240
	c16.5,0,30,13.5,30,30V396z"/>
<path fill="#FFFFFF" d="M256,186c-49.6,0-90,40.4-90,90s40.4,90,90,90s90-40.4,90-90S305.6,186,256,186z M256,346
	c-38.6,0-70-31.4-70-70s31.4-70,70-70s70,31.4,70,70S294.6,346,256,346z"/>
<path fill="#FFFFFF" d="M356,146c-16.5,0-30,13.5-30,30s13.5,30,30,30s30-13.5,30-30S372.5,146,356,146z M356,186
	c-5.5,0-10-4.5-10-10s4.5-10,10-10s10,4.5,10,10S361.5,186,356,186z"/>
<path fill="#FFFFFF" d="M462,0H50C22.4,0,0,22.4,0,50v412c0,27.6,22.4,50,50,50h412c27.6,0,50-22.4,50-50V50C512,22.4,489.6,0,462,0
	z M492,462c0,16.5-13.5,30-30,30H50c-16.5,0-30-13.5-30-30V50c0-16.5,13.5-30,30-30h412c16.5,0,30,13.5,30,30V462z"/>
<path fill="#FFFFFF" d="M136,63h200c5.5,0,10-4.5,10-10s-4.5-10-10-10H136c-5.5,0-10,4.5-10,10S130.5,63,136,63z"/>
</svg>
