<?xml version="1.0" encoding="utf-8"?>
<!-- Generator: Adobe Illustrator 17.1.0, SVG Export Plug-In . SVG Version: 6.00 Build 0)  -->
<!DOCTYPE svg PUBLIC "-//W3C//DTD SVG 1.1//EN" "http://www.w3.org/Graphics/SVG/1.1/DTD/svg11.dtd">
<svg version="1.1" id="Capa_1" xmlns="http://www.w3.org/2000/svg" xmlns:xlink="http://www.w3.org/1999/xlink" x="0px" y="0px"
	 viewBox="150.9 -2.4 540 600" enable-background="new 150.9 -2.4 540 600" xml:space="preserve">
<g>
	<g>
		<path fill="#FFFFFF" d="M420.9,69.8c-67.3,0-122.1,54.8-122.1,122.1c0,41.8,21.1,80.2,56.4,102.9c36,23.1,80.3,25.5,121.4,6.6
			c8.7-4,12.6-14.4,8.6-23.1c-4-8.7-14.4-12.6-23.1-8.6c-30.1,13.8-62.1,12.3-88-4.3c-25.2-16.2-40.3-43.6-40.3-73.5
			c0-48.1,39.1-87.2,87.2-87.2s87.2,39.1,87.2,87.2c0,9.6-7.8,17.4-17.4,17.4c-8.8,0-17-6.7-17.4-17.2c0-0.1,0-0.2,0-0.3
			c0-28.8-23.5-52.3-52.3-52.3s-52.3,23.5-52.3,52.3s23.5,52.3,52.3,52.3c13.4,0,25.6-5.1,34.9-13.4c9.3,8.3,21.5,13.4,34.9,13.4
			c28.8,0,52.3-23.5,52.3-52.3C543,124.5,488.3,69.8,420.9,69.8z M438.1,194.6c-1.3,8.3-8.5,14.6-17.2,14.6
			c-9.6,0-17.4-7.8-17.4-17.4c0-9.6,7.8-17.4,17.4-17.4c8.9,0,16.3,6.8,17.3,15.4C438,191.4,438,193,438.1,194.6z"/>
	</g>
</g>
<g>
	<g>
		<path fill="#FFFFFF" d="M682.5,229c0-4.5-1.8-9-5.1-12.3l-64.7-64.7V17.4C612.8,7.8,605,0,595.3,0H246.5
			c-9.6,0-17.4,7.8-17.4,17.4v134.6l-64.7,64.7c-0.1,0.1-0.1,0.1-0.2,0.2c-3.3,3.4-4.9,7.8-4.9,12.1c0,0,0,0,0,0V543
			c0,28.9,23.5,52.3,52.3,52.3h418.6c28.9,0,52.3-23.5,52.3-52.3L682.5,229C682.5,229,682.5,229,682.5,229z M612.8,201.4l27.7,27.7
			l-27.7,27.7V201.4z M264,159.3C264,159.3,264,159.3,264,159.3V34.9h313.9v124.4c0,0,0,0,0,0v132.3L483.5,386H358.4L264,291.6
			V159.3z M229.1,201.4v55.3L201.5,229L229.1,201.4z M194.2,535.7V271.1l132.3,132.3L194.2,535.7z M218.9,560.4l139.5-139.5h125.1
			L623,560.4H218.9z M647.7,535.7L515.4,403.4l132.3-132.3V535.7z"/>
	</g>
</g>
</svg>
