<?xml version="1.0" encoding="utf-8"?>
<!-- Generator: Adobe Illustrator 17.1.0, SVG Export Plug-In . SVG Version: 6.00 Build 0)  -->
<!DOCTYPE svg PUBLIC "-//W3C//DTD SVG 1.1//EN" "http://www.w3.org/Graphics/SVG/1.1/DTD/svg11.dtd">
<svg version="1.1" id="Layer_1" xmlns="http://www.w3.org/2000/svg" xmlns:xlink="http://www.w3.org/1999/xlink" x="0px" y="0px"
	 viewBox="0 0 512 512" enable-background="new 0 0 512 512" xml:space="preserve">
<path fill="#FFFFFF" d="M386,53c0,5.5-4.5,10-10,10s-10-4.5-10-10s4.5-10,10-10S386,47.5,386,53z"/>
<path fill="#FFFFFF" d="M397.4,141.7l-295,115c-3.8,1.5-6.4,5.2-6.4,9.3c0,4.1,2.5,7.8,6.4,9.3l57.5,22.3
	c6.6,16.5,36.4,91.1,36.9,92.2c2.8,6.6,11.3,8.2,16.3,3.2l44.6-44.6l82.2,65.3c5.8,4.6,14.4,1.6,16-5.7l55-255
	C412.4,145.5,404.9,138.8,397.4,141.7z M292,204.2l-125.4,74.6L133.6,266L292,204.2z M321.6,209.9l-102.3,93.3
	c-1.3,1.2-2.4,2.9-2.9,4.8c0,0,0,0,0,0l-12.3,46.2l-24-60.1L321.6,209.9z M231.7,328l10.1,8l-16.7,16.7L231.7,328z M339.6,388.2
	c-19.1-15.2-80.5-64-98.2-78.1l143.2-130.6L339.6,388.2z"/>
<path fill="#FFFFFF" d="M462,0H50C22.4,0,0,22.4,0,50v412c0,27.6,22.4,50,50,50h412c27.6,0,50-22.4,50-50V50C512,22.4,489.6,0,462,0
	z M492,462c0,16.5-13.5,30-30,30H50c-16.5,0-30-13.5-30-30V50c0-16.5,13.5-30,30-30h412c16.5,0,30,13.5,30,30V462z"/>
<path fill="#FFFFFF" d="M136,63h200c5.5,0,10-4.5,10-10s-4.5-10-10-10H136c-5.5,0-10,4.5-10,10S130.5,63,136,63z"/>
</svg>
