<?xml version="1.0" encoding="utf-8"?>
<!-- Generator: Adobe Illustrator 17.1.0, SVG Export Plug-In . SVG Version: 6.00 Build 0)  -->
<!DOCTYPE svg PUBLIC "-//W3C//DTD SVG 1.1//EN" "http://www.w3.org/Graphics/SVG/1.1/DTD/svg11.dtd">
<svg version="1.1" id="Layer_1" xmlns="http://www.w3.org/2000/svg" xmlns:xlink="http://www.w3.org/1999/xlink" x="0px" y="0px"
	 viewBox="0 0 512 512" enable-background="new 0 0 512 512" xml:space="preserve">
<path fill="#FFFFFF" d="M386,53c0,5.5-4.5,10-10,10s-10-4.5-10-10s4.5-10,10-10S386,47.5,386,53z"/>
<path fill="#FFFFFF" d="M374.2,302.4c-3.5-4.7-2.7-7.8-0.1-12.5c3.3-5.9,10-14.8,17-24.3c22.6-30.4,37.2-51.5,34.2-66.5
	c-0.9-4.7-5-8-9.8-8c0,0-49.2,0-67.4,0.1c-4.4,0-8.3,2.8-9.5,7.1c-2.2,7.4-10.7,27.3-21,45.5c-13.4,23.6-22.2,31.1-25.3,32.4
	l-0.5-0.2c-1-1.3-2.8-4.6-3.5-13.4c-0.8-9.1-0.1-20.2,0.6-30.9c0.8-12.5,1.4-23.3-0.2-31c-1.1-2.8-0.3-12.1-8.9-14
	c-11.9-2.7-28-3.6-39.5-3.7c-27.2-0.3-35.2,3.7-39.1,7.1c-2.7,2.4-3.9,6-3.2,9.5c0.7,3.5,3.2,6.4,6.6,7.5c6.1,2.1,8.3,4.7,10,16.9
	c1.1,7.8,1.7,21,0.5,32.8c-1.7,16.6-5.7,19.9-6.1,20.2c-0.9-0.3-7.5-3.2-19.6-27.7c-10.4-21.1-19.1-46.4-23.2-56.8
	c-1.5-3.8-5.2-6.4-9.3-6.4H97.3c-3.3,0-6.4,1.6-8.3,4.3c-1.9,2.7-2.3,6.2-1.1,9.3c18.7,48.5,40.2,98.2,70.4,132.9
	C189.5,368.5,228,386,276,386c5.5,0,10-4.5,10-10c0-17.3,2.4-22.4,6.2-29.6c2.1-4,4.1-5.7,5.3-5.9c1-0.2,2.8,0.5,4.8,2
	c5.7,4.2,10.2,9.8,15,15.7c6.9,8.5,14,17.3,25.3,23.1c6.2,3.1,17.2,4.7,23.5,4.6H416c5.7,0,10.2-4.6,10-10.3
	C424.8,346,383.3,313.9,374.2,302.4z M366,366c-0.1,0-0.1,0-0.2,0c-4.2,0.1-11.8-1.3-14.2-2.6c-7.5-3.8-12.8-10.3-18.8-17.8
	c-5.3-6.6-10.9-13.4-18.6-19.2c-14.2-10.6-30.2-7.2-39.7,10.6c-5.3,10-7.3,16.6-8.2,28.6c-37.8-2.1-67.5-17-92.9-46.3
	c-25.4-29.3-44.7-71.1-61.5-113.4h38.2c14.9,40.3,34.3,90.9,59,90.9c6.1,0,11.5-2.6,15.7-7.4c16.2-18.7,9.8-67.8,9.7-68.3
	c-0.9-6.1-2.1-12.4-5.1-18.1c12.7-0.5,29.7,0.3,39.7,1.8c1,5.2,0.3,15.5-0.3,25.5c-1.5,24.3-3,49.4,10.1,60.9
	c0.4,0.3,7.6,4.7,12.1,4.9c8.1,0.3,21.4-3.6,42.9-41c8.8-15.2,16.9-32.8,21.3-44.3c14.4,0,34.7-0.1,48-0.1
	c-5.9,12.9-18.8,30.1-28.2,42.7c-7.7,10.4-14.4,19.4-18.4,26.4c-7.3,12.9-6.1,24.4,1.5,34.5c0,0.1,0.1,0.1,0.1,0.2
	c9.5,12.1,34.1,30.7,44.4,51.3H366z"/>
<path fill="#FFFFFF" d="M462,0H50C22.4,0,0,22.4,0,50v412c0,27.6,22.4,50,50,50h412c27.6,0,50-22.4,50-50V50C512,22.4,489.6,0,462,0
	z M492,462c0,16.5-13.5,30-30,30H50c-16.5,0-30-13.5-30-30V50c0-16.5,13.5-30,30-30h412c16.5,0,30,13.5,30,30V462z"/>
<path fill="#FFFFFF" d="M136,63h200c5.5,0,10-4.5,10-10s-4.5-10-10-10H136c-5.5,0-10,4.5-10,10S130.5,63,136,63z"/>
</svg>
